ply
format ascii 1.0
comment Created by Blender 3.0.1 - www.blender.org
element vertex 327
property float x
property float y
property float z
element face 643
property list uchar uint vertex_indices
end_header
0.000000 0.000000 -0.250000
0.106330 -0.077253 -0.212664
-0.040614 -0.124999 -0.212664
0.180902 -0.131432 -0.111805
0.212662 0.000000 -0.131434
-0.131433 0.000000 -0.212663
-0.040614 0.124999 -0.212664
0.106330 0.077253 -0.212664
0.237764 -0.077253 0.000000
-0.069097 -0.212663 -0.111805
0.065717 -0.202253 -0.131435
0.000000 -0.250000 0.000000
-0.223606 0.000000 -0.111804
-0.172047 -0.124999 -0.131434
-0.237764 -0.077253 0.000000
-0.069097 0.212663 -0.111805
-0.172047 0.124999 -0.131434
-0.146947 0.202254 0.000000
0.180902 0.131432 -0.111805
0.065717 0.202253 -0.131435
0.146947 0.202254 0.000000
0.146947 -0.202254 0.000000
-0.146947 -0.202254 0.000000
-0.237764 0.077253 0.000000
0.000000 0.250000 0.000000
0.237764 0.077253 0.000000
0.069097 -0.212663 0.111805
0.172047 -0.124999 0.131434
0.040614 -0.124999 0.212664
-0.180902 -0.131432 0.111805
-0.065717 -0.202253 0.131435
-0.106330 -0.077253 0.212664
-0.180902 0.131432 0.111805
-0.212662 0.000000 0.131434
-0.106330 0.077253 0.212664
0.069097 0.212663 0.111805
-0.065717 0.202253 0.131435
0.040614 0.124999 0.212664
0.223606 0.000000 0.111804
0.172047 0.124999 0.131434
0.131433 0.000000 0.212663
0.000000 0.000000 0.250000
-0.913972 2.278952 1.431917
-0.339344 1.753476 1.469383
-0.395667 1.759039 1.334511
-1.009529 2.273458 1.319497
-1.403431 2.523677 1.373088
-1.442077 2.486050 1.306105
-1.868380 2.564189 1.291734
-1.890511 2.502768 1.259914
-2.133571 2.496050 1.233226
-2.015017 1.519939 1.125828
-1.861441 1.887933 1.203301
-1.839183 1.639109 1.021943
-1.251046 1.751471 1.119323
-1.490613 2.061100 1.201582
-1.656697 2.232069 1.232372
2.289041 0.874985 1.843105
2.220687 0.920554 1.719145
2.088751 0.993786 1.821507
1.776629 1.144740 1.783315
1.894800 1.096544 1.583993
0.805156 1.558314 1.656977
1.347897 1.325255 1.727293
1.446687 1.283329 1.658140
0.888107 1.508001 1.384328
1.464409 1.267011 1.526329
0.175897 1.751047 1.565171
0.259795 1.717527 1.232452
-0.303365 1.567651 1.072279
-1.155554 1.560752 0.881164
-1.998923 1.382354 0.797891
-2.726857 1.331664 0.788333
-2.745214 1.370138 0.969745
-3.271417 1.345617 0.868337
-3.285880 1.210416 0.621035
-3.603968 1.382039 0.811137
-3.693813 1.210750 0.587919
-3.930758 1.451926 0.759453
-4.055075 1.312754 0.596694
-4.201899 1.525392 0.718624
-4.283090 1.468489 0.547435
-4.470668 1.505725 0.665880
-4.400973 1.443879 0.557265
1.547130 1.201046 1.404055
1.355478 1.144952 1.200520
0.877475 1.308389 1.176128
0.325113 1.458790 1.061812
-0.270186 1.324887 0.874374
-1.020390 1.312921 0.760085
-1.926022 1.197265 0.661827
-2.723227 1.232853 0.674185
1.701517 1.057586 1.269172
1.578867 1.006901 1.165245
1.826001 0.977027 1.348180
2.112482 0.788908 1.478219
2.353073 0.630345 1.666248
1.707616 0.948121 1.267480
1.584114 0.854206 1.157812
2.426879 0.538398 1.609187
2.930359 0.222665 1.762772
2.868921 0.163992 1.743527
2.378963 0.371915 1.562464
2.500617 0.528598 1.836612
3.011975 0.209200 1.889619
3.013234 0.189093 1.824710
2.462782 0.557239 1.755184
1.767127 0.873602 1.272695
1.904625 0.789752 1.291064
1.903077 0.746028 1.281127
2.103357 0.728773 1.382519
2.079472 0.637684 1.373825
2.345763 0.302826 1.527562
2.783955 0.118945 1.706159
2.034287 0.453769 1.340994
1.861568 0.651877 1.202264
1.563016 0.451727 1.116016
2.026766 0.366378 1.304606
1.766549 0.708910 1.188106
1.698580 0.831858 1.195741
1.556403 0.634975 1.080469
2.749810 0.065229 1.653577
2.354100 0.227837 1.487930
1.750644 0.417600 1.193421
2.036839 0.020817 1.420824
1.473899 0.026896 1.234606
2.284209 0.073658 1.579540
2.361416 0.173106 1.497728
1.022849 0.283486 0.863983
1.007600 0.118020 0.964288
1.494694 0.637613 1.041917
0.895394 0.727405 0.805242
1.353318 0.876544 1.051249
1.281606 1.053817 1.116020
0.850351 1.068824 0.943855
0.387335 1.137089 0.811763
0.291904 0.750219 0.668461
-0.299470 0.877288 0.621789
-0.363235 0.604622 0.526937
-1.013207 0.959224 0.526915
-1.031932 0.613613 0.434633
-1.842706 0.875507 0.396316
-1.829003 0.476507 0.334237
-2.716164 0.947308 0.410951
-2.773752 0.577359 0.421446
-3.299874 0.998488 0.457354
-3.409720 0.647323 0.413814
-3.748098 1.040131 0.523917
-3.837721 0.834382 0.476053
-4.046385 1.150013 0.545331
-4.106987 0.971791 0.498685
-4.317306 1.387709 0.397382
0.414017 0.258677 0.778361
-0.417318 0.072559 0.653376
-0.974346 0.111641 0.546809
-1.705147 0.069958 0.514368
-2.803245 0.238349 0.543001
-3.573979 0.392086 0.536888
-3.932127 0.646293 0.542895
-4.346144 0.958760 0.530516
-4.487686 1.145517 0.431179
0.728932 0.277534 0.339342
0.741159 0.247837 0.372922
0.338145 0.325451 0.413451
0.036718 0.166408 0.140695
0.274521 0.166632 0.130456
0.583471 0.225480 0.207588
-0.465322 -0.197416 1.187035
0.305777 -0.058440 1.349310
-1.754375 -0.153189 0.952451
-2.947678 0.180337 0.774113
-3.959397 0.565230 0.636462
-4.393708 0.944170 0.605727
1.353464 -0.069365 1.543290
0.795149 -0.076689 1.438173
1.884367 -0.085127 1.640230
2.224613 0.012456 1.716645
2.720176 0.003829 1.686836
2.660207 -0.044556 1.790333
2.950691 -0.032147 1.775841
2.985041 -0.060534 1.848806
-4.903511 1.970670 -0.326460
-4.684439 1.592820 -0.488070
-4.937635 2.133034 -0.670745
-4.529315 1.488030 0.398537
-4.737839 1.644625 0.485979
-4.653816 1.552059 0.637864
-4.849127 1.779267 0.541713
-4.786061 1.650702 0.626284
-4.339150 1.375023 0.301758
3.001434 0.099676 1.873121
3.005769 0.100832 1.815454
3.011276 0.022591 1.790405
3.028803 0.012155 1.866613
0.577281 0.193999 0.229648
0.269097 0.150958 0.150754
-2.003262 2.199654 1.218207
-2.177317 2.375908 1.209125
-1.102732 -0.135771 1.076315
-3.571006 0.325387 0.677087
-4.561672 1.133395 0.599503
-4.544750 1.352953 -0.173308
-4.715881 1.572860 -0.496584
-4.496067 1.394259 -0.158747
-4.906190 1.839183 0.296658
1.400591 1.307731 1.734797
-1.042804 2.249789 1.497883
-0.440015 1.727493 1.572262
-1.461496 2.472237 1.410212
-1.897439 2.497841 1.297053
-1.893241 1.600657 1.311748
-1.523888 2.037431 1.379969
-1.314759 1.706152 1.460888
-1.676116 2.218255 1.336480
2.179120 0.890988 1.941981
1.818594 1.042339 1.992526
1.417612 1.262648 1.814008
1.388204 1.212806 1.934862
0.788336 1.437034 1.919194
0.137878 1.630806 1.886046
-0.437775 1.472045 1.792841
-1.301036 1.457269 1.661091
-2.109767 1.303510 1.392121
-2.790571 1.286344 1.129898
-3.366231 1.153262 1.051794
-3.758945 1.164421 0.937087
-4.098006 1.282217 0.826842
-4.335730 1.431046 0.829636
-4.441176 1.415282 0.772790
1.425213 1.114326 2.057650
1.176720 1.017801 2.158833
0.713991 1.192102 2.052559
0.150556 1.334626 1.997607
-0.465527 1.185940 1.921587
-1.206075 1.180842 1.755537
-2.081215 1.086876 1.493807
-2.822997 1.161885 1.209051
1.379327 0.864966 2.234976
1.528324 0.934393 2.197657
1.676372 0.870596 2.150332
1.998856 0.708086 2.087363
2.297651 0.590923 1.963363
1.388774 0.715259 2.205026
1.538568 0.827876 2.173740
2.350673 0.484193 2.017720
2.828718 0.135396 1.959052
2.890157 0.194069 1.978297
2.297194 0.313752 2.000826
2.435071 0.537528 1.903741
2.991087 0.173339 1.943439
1.599497 0.754366 2.171351
1.735447 0.626792 2.179783
1.738359 0.671486 2.182409
1.959238 0.626260 2.155135
1.938136 0.537150 2.131527
2.257066 0.239735 2.003063
2.738243 0.086430 1.951220
1.892950 0.353235 2.098696
1.673155 0.517857 2.212338
1.373184 0.316699 2.133694
1.877137 0.259946 2.106759
1.576718 0.573882 2.205783
1.510167 0.697838 2.205816
1.345788 0.485164 2.209564
2.690242 0.022858 1.972917
2.254330 0.156870 2.022795
1.943996 -0.045223 1.918550
1.577451 0.294406 2.121905
1.351981 -0.059825 1.888200
2.228787 0.034236 1.876655
2.267209 0.106097 2.002765
0.787306 0.115942 2.126722
0.816405 -0.017979 1.989277
1.274369 0.480895 2.223066
0.626576 0.536193 2.246367
1.134412 0.720835 2.224795
1.082065 0.911882 2.185751
0.617589 0.903259 2.191680
0.135154 0.957711 2.163695
0.013431 0.552139 2.161347
-0.561360 0.691004 2.025775
-0.641709 0.406542 2.019824
-1.265388 0.779846 1.878847
-1.299332 0.423410 1.868155
-2.082395 0.705015 1.681280
-2.072838 0.303065 1.641426
-2.896286 0.819187 1.376574
-2.928944 0.466970 1.253426
-3.427356 0.907809 1.140777
-3.528856 0.562581 1.052494
-3.824304 0.985925 0.932450
-3.915290 0.779207 0.891897
-4.100443 1.111561 0.835135
-4.165190 0.930390 0.810714
-4.417077 1.316742 0.932248
0.189547 0.099010 1.981736
-0.622368 -0.073295 1.752643
-1.182179 -0.036191 1.660990
-1.874195 -0.050287 1.420627
-2.897451 0.171340 1.048038
-3.626619 0.354643 0.819089
-3.970911 0.618705 0.750818
-4.376637 0.937070 0.693988
-4.552818 1.099189 0.780348
0.327123 -0.008276 2.493426
0.351842 -0.029087 2.460037
-0.013806 0.075106 2.300249
-0.384511 -0.133214 2.398887
0.147022 -0.084969 2.547369
-0.166073 -0.146765 2.492462
2.677246 -0.026707 1.916983
2.925762 -0.049879 1.909485
-5.410086 1.796977 1.862043
-5.083467 1.308989 1.651099
-5.248535 1.725253 1.523199
-4.619377 1.423969 0.881348
-4.790479 1.607182 0.768180
-4.880984 1.756607 0.712495
-4.470777 1.281396 1.007407
2.984986 0.086049 1.926872
2.984929 0.003850 1.931651
-0.163205 -0.156542 2.468310
0.150543 -0.109543 2.517375
-5.114909 1.289030 1.642586
-4.830152 1.149945 1.356717
-4.781468 1.191251 1.371279
-5.023962 1.755412 0.928027
3 0 1 2
3 3 1 4
3 0 2 5
3 0 5 6
3 0 6 7
3 3 4 8
3 9 10 11
3 12 13 14
3 15 16 17
3 18 19 20
3 3 8 21
3 9 11 22
3 12 14 23
3 15 17 24
3 18 20 25
3 26 27 28
3 29 30 31
3 32 33 34
3 35 36 37
3 38 39 40
3 40 37 41
3 40 39 37
3 39 35 37
3 37 34 41
3 37 36 34
3 36 32 34
3 34 31 41
3 34 33 31
3 33 29 31
3 31 28 41
3 31 30 28
3 30 26 28
3 28 40 41
3 28 27 40
3 27 38 40
3 25 39 38
3 25 20 39
3 20 35 39
3 24 36 35
3 24 17 36
3 17 32 36
3 23 33 32
3 23 14 33
3 14 29 33
3 22 30 29
3 22 11 30
3 11 26 30
3 21 27 26
3 21 8 27
3 8 38 27
3 20 24 35
3 20 19 24
3 19 15 24
3 17 23 32
3 17 16 23
3 16 12 23
3 14 22 29
3 14 13 22
3 13 9 22
3 11 21 26
3 11 10 21
3 10 3 21
3 8 25 38
3 8 4 25
3 4 18 25
3 7 19 18
3 7 6 19
3 6 15 19
3 6 16 15
3 6 5 16
3 5 12 16
3 5 13 12
3 5 2 13
3 2 9 13
3 4 7 18
3 4 1 7
3 1 0 7
3 2 10 9
3 2 1 10
3 1 3 10
3 42 43 44
3 44 45 42
3 46 42 45
3 45 47 46
3 48 46 47
3 47 49 48
3 50 48 49
3 51 52 53
3 45 44 54
3 54 55 45
3 47 45 55
3 55 56 47
3 49 47 56
3 57 58 59
3 60 59 58
3 58 61 60
3 62 63 64
3 64 65 62
3 65 64 66
3 67 62 65
3 65 68 67
3 43 67 68
3 68 44 43
3 69 44 68
3 54 44 69
3 69 70 54
3 53 54 70
3 70 71 53
3 51 53 71
3 51 71 72
3 72 73 51
3 74 73 72
3 72 75 74
3 76 74 75
3 75 77 76
3 78 76 77
3 77 79 78
3 80 78 79
3 79 81 80
3 82 80 81
3 81 83 82
3 66 61 84
3 66 84 85
3 66 85 86
3 86 65 66
3 68 65 86
3 86 87 68
3 69 68 87
3 87 88 69
3 70 69 88
3 88 89 70
3 71 70 89
3 89 90 71
3 72 71 90
3 90 91 72
3 75 72 91
3 92 93 85
3 85 84 92
3 94 92 84
3 84 61 94
3 95 94 61
3 61 58 95
3 96 95 58
3 97 98 93
3 93 92 97
3 94 97 92
3 96 99 95
3 100 101 102
3 102 99 100
3 103 104 105
3 105 106 103
3 106 96 58
3 58 57 106
3 103 106 57
3 107 94 108
3 108 109 107
3 94 95 110
3 110 108 94
3 109 108 110
3 110 111 109
3 111 110 99
3 99 102 111
3 112 102 101
3 101 113 112
3 111 102 112
3 112 114 111
3 115 109 111
3 116 115 114
3 114 117 116
3 99 96 106
3 107 109 118
3 119 107 118
3 98 119 118
3 120 98 118
3 115 120 118
3 109 115 118
3 113 121 122
3 122 112 113
3 112 122 117
3 117 114 112
3 123 117 124
3 124 116 123
3 116 124 125
3 126 124 117
3 117 127 126
3 128 116 125
3 125 129 128
3 130 116 128
3 128 131 130
3 130 120 116
3 98 120 130
3 130 132 98
3 85 93 98
3 98 133 85
3 133 98 132
3 134 132 130
3 130 131 134
3 135 134 131
3 131 136 135
3 137 135 136
3 136 138 137
3 139 137 138
3 138 140 139
3 141 139 140
3 140 142 141
3 143 141 142
3 142 144 143
3 145 143 144
3 144 146 145
3 147 145 146
3 146 148 147
3 149 147 148
3 148 150 149
3 133 132 134
3 86 133 134
3 85 133 86
3 87 86 134
3 134 135 87
3 88 87 135
3 135 137 88
3 89 88 137
3 137 139 89
3 90 89 139
3 139 141 90
3 91 90 141
3 141 143 91
3 75 91 143
3 143 145 75
3 77 75 145
3 145 147 77
3 79 77 147
3 147 149 79
3 81 79 149
3 149 151 81
3 83 81 151
3 136 131 128
3 128 152 136
3 138 136 152
3 152 153 138
3 140 138 153
3 153 154 140
3 142 140 154
3 154 155 142
3 144 142 155
3 155 156 144
3 146 144 156
3 156 157 146
3 148 146 157
3 157 158 148
3 150 148 158
3 158 159 150
3 160 150 159
3 161 128 129
3 129 162 161
3 152 128 161
3 161 163 152
3 164 163 161
3 161 165 164
3 165 161 166
3 167 153 152
3 152 168 167
3 156 155 169
3 169 170 156
3 159 158 171
3 171 172 159
3 129 125 173
3 173 174 129
3 152 129 174
3 174 168 152
3 125 124 175
3 175 173 125
3 124 126 176
3 176 175 124
3 126 177 178
3 178 176 126
3 126 127 177
3 179 180 178
3 178 177 179
3 181 182 183
3 83 184 185
3 185 186 83
3 186 185 187
3 187 188 186
3 189 151 149
3 149 150 189
3 160 189 150
3 100 99 106
3 106 105 100
3 190 191 105
3 105 104 190
3 100 105 191
3 191 101 100
3 117 122 127
3 121 177 127
3 127 122 121
3 177 121 179
3 192 179 121
3 121 113 192
3 191 192 113
3 113 101 191
3 180 179 192
3 192 193 180
3 191 190 193
3 193 192 191
3 97 94 107
3 119 98 97
3 116 120 115
3 99 110 95
3 107 119 97
3 194 195 165
3 165 166 194
3 166 161 162
3 162 194 166
3 164 165 195
3 163 162 129
3 129 152 163
3 164 195 194
3 194 163 164
3 163 194 162
3 52 55 54
3 54 53 52
3 52 196 56
3 56 55 52
3 196 197 50
3 50 56 196
3 56 50 49
3 155 154 198
3 198 169 155
3 198 154 153
3 153 167 198
3 171 158 157
3 157 199 171
3 170 199 157
3 157 156 170
3 159 172 200
3 200 160 159
3 201 202 182
3 182 203 201
3 203 189 160
3 160 201 203
3 183 182 202
3 83 186 82
3 160 200 188
3 188 187 204
3 204 160 188
3 160 204 201
3 204 181 202
3 202 201 204
3 202 181 183
3 182 181 204
3 204 203 182
3 204 187 185
3 185 203 204
3 203 185 184
3 203 184 189
3 184 83 151
3 151 189 184
3 63 205 64
3 61 64 205
3 205 60 61
3 61 66 64
3 43 42 206
3 206 207 43
3 42 46 208
3 208 206 42
3 46 48 209
3 209 208 46
3 209 48 50
3 210 52 51
3 207 206 211
3 211 212 207
3 206 208 213
3 213 211 206
3 213 208 209
3 59 214 57
3 59 60 215
3 215 214 59
3 216 63 62
3 62 217 216
3 217 62 218
3 62 67 219
3 219 218 62
3 67 43 207
3 207 219 67
3 219 207 220
3 207 212 221
3 221 220 207
3 212 210 222
3 222 221 212
3 222 210 51
3 222 51 73
3 73 223 222
3 73 74 224
3 224 223 73
3 74 76 225
3 225 224 74
3 76 78 226
3 226 225 76
3 78 80 227
3 227 226 78
3 80 82 228
3 228 227 80
3 229 215 217
3 230 229 217
3 230 217 218
3 218 231 230
3 218 219 232
3 232 231 218
3 219 220 233
3 233 232 219
3 220 221 234
3 234 233 220
3 221 222 235
3 235 234 221
3 222 223 236
3 236 235 222
3 236 223 224
3 237 238 229
3 229 230 237
3 238 239 215
3 215 229 238
3 215 239 240
3 240 214 215
3 214 240 241
3 242 243 238
3 238 237 242
3 238 243 239
3 240 244 241
3 245 246 244
3 244 247 245
3 104 103 248
3 248 249 104
3 241 248 57
3 57 214 241
3 57 248 103
3 239 250 251
3 251 252 239
3 240 239 252
3 252 253 240
3 252 251 254
3 254 253 252
3 253 254 247
3 247 244 253
3 247 255 256
3 256 245 247
3 247 254 257
3 257 255 247
3 254 251 258
3 258 259 260
3 260 257 258
3 248 241 244
3 261 251 250
3 261 250 262
3 261 262 242
3 261 242 263
3 261 263 258
3 261 258 251
3 264 256 255
3 255 265 264
3 265 255 257
3 257 260 265
3 266 260 267
3 267 268 266
3 268 267 259
3 266 269 270
3 270 260 266
3 259 271 272
3 272 268 259
3 259 273 274
3 274 271 259
3 259 263 273
3 263 242 275
3 275 273 263
3 242 237 230
3 230 275 242
3 275 230 276
3 275 277 274
3 274 273 275
3 277 278 279
3 279 274 277
3 278 280 281
3 281 279 278
3 280 282 283
3 283 281 280
3 282 284 285
3 285 283 282
3 284 286 287
3 287 285 284
3 286 288 289
3 289 287 286
3 288 290 291
3 291 289 288
3 290 292 293
3 293 291 290
3 277 275 276
3 277 276 231
3 231 276 230
3 231 232 278
3 278 277 231
3 232 233 280
3 280 278 232
3 233 234 282
3 282 280 233
3 234 235 284
3 284 282 234
3 235 236 286
3 286 284 235
3 236 224 288
3 288 286 236
3 224 225 290
3 290 288 224
3 225 226 292
3 292 290 225
3 226 227 294
3 294 292 226
3 294 227 228
3 274 279 295
3 295 271 274
3 279 281 296
3 296 295 279
3 281 283 297
3 297 296 281
3 283 285 298
3 298 297 283
3 285 287 299
3 299 298 285
3 287 289 300
3 300 299 287
3 289 291 301
3 301 300 289
3 291 293 302
3 302 301 291
3 302 293 303
3 271 304 305
3 305 272 271
3 271 295 306
3 306 304 271
3 304 306 307
3 307 308 304
3 308 307 309
3 296 167 168
3 168 295 296
3 298 299 170
3 170 169 298
3 301 302 172
3 172 171 301
3 268 272 174
3 174 173 268
3 272 295 168
3 168 174 272
3 266 268 173
3 173 175 266
3 269 266 175
3 175 176 269
3 310 269 176
3 176 178 310
3 310 270 269
3 180 311 310
3 310 178 180
3 312 313 314
3 315 228 186
3 186 316 315
3 316 186 188
3 188 317 316
3 294 318 293
3 293 292 294
3 293 318 303
3 244 246 249
3 249 248 244
3 319 190 104
3 104 249 319
3 249 246 245
3 245 319 249
3 270 265 260
3 310 264 265
3 265 270 310
3 311 264 310
3 311 320 256
3 256 264 311
3 320 319 245
3 245 256 320
3 311 180 193
3 193 320 311
3 190 319 320
3 320 193 190
3 250 239 243
3 243 242 262
3 258 263 259
3 240 253 244
3 243 262 250
3 321 322 308
3 308 309 321
3 304 308 322
3 322 305 304
3 321 309 307
3 305 306 295
3 295 272 305
3 322 321 307
3 307 305 322
3 305 307 306
3 211 52 210
3 210 212 211
3 196 52 211
3 211 213 196
3 196 209 50
3 209 196 213
3 297 298 169
3 169 198 297
3 297 198 167
3 167 296 297
3 301 171 199
3 199 300 301
3 199 170 299
3 299 300 199
3 172 302 303
3 303 200 172
3 323 324 325
3 325 313 323
3 318 325 324
3 324 303 318
3 323 313 312
3 82 186 228
3 188 200 303
3 326 317 188
3 188 324 326
3 324 188 303
3 314 326 324
3 324 323 314
3 312 314 323
3 314 313 325
3 325 326 314
3 317 326 325
3 325 316 317
3 315 316 325
3 318 315 325
3 228 315 318
3 318 294 228
3 216 205 63
3 216 215 60
3 60 205 216
3 216 217 215
3 258 257 254
3 111 114 115
